<svg aria-hidden="true" style="position: absolute; width: 0; height: 0; overflow: hidden;"
  version="1.1" xmlns="http://www.w3.org/2000/svg" xmlns:xlink="http://www.w3.org/1999/xlink">
  <defs>
    <symbol id="icon-AC" viewBox="0 0 32 32">
      <path
        d="M25 4c-2.761 0-5 2.239-5 5v0c0 0.552-0.448 1-1 1s-1-0.448-1-1v0c0-3.866 3.134-7 7-7s7 3.134 7 7c0 3.866-3.134 7-7 7v0h-24c-0.552 0-1-0.448-1-1s0.448-1 1-1v0h24c2.761 0 5-2.239 5-5s-2.239-5-5-5v0zM11 6c-1.105 0-2 0.895-2 2v0c0 0.552-0.448 1-1 1s-1-0.448-1-1v0c0-2.209 1.791-4 4-4s4 1.791 4 4c0 2.209-1.791 4-4 4v0h-10c-0.552 0-1-0.448-1-1s0.448-1 1-1v0h10c1.105 0 2-0.895 2-2s-0.895-2-2-2v0zM0 19c0-0.552 0.448-1 1-1v0h20.085c3.314 0 6 2.686 6 6s-2.686 6-6 6c-3.314 0-6-2.686-6-6v0c0-0.552 0.448-1 1-1s1 0.448 1 1v0c0 2.209 1.791 4 4 4s4-1.791 4-4c0-2.209-1.791-4-4-4v0h-20.086c-0.552-0.001-0.998-0.448-0.998-1 0 0 0 0 0 0v0z"></path>
    </symbol>
    <symbol id="icon-bathroom" viewBox="0 0 32 32">
      <path
        d="M8 29.501c0 0.828-0.671 1.499-1.499 1.499s-1.499-0.671-1.499-1.499v0c0-0.828 0.671-1.499 1.499-1.499s1.499 0.671 1.499 1.499v0zM10.501 24c-0.015-0-0.032-0.001-0.049-0.001-0.829 0-1.501 0.672-1.501 1.501s0.672 1.501 1.501 1.501c0.017 0 0.034-0 0.051-0.001l-0.002 0c0.808-0.027 1.452-0.688 1.452-1.5s-0.644-1.473-1.449-1.5l-0.002-0zM2.501 24c-0.015-0-0.032-0.001-0.049-0.001-0.829 0-1.501 0.672-1.501 1.501s0.672 1.501 1.501 1.501c0.017 0 0.034-0 0.051-0.001l-0.002 0c0.808-0.027 1.452-0.688 1.452-1.5s-0.644-1.473-1.449-1.5l-0.002-0zM6.501 20c-0.015-0-0.032-0.001-0.049-0.001-0.829 0-1.501 0.672-1.501 1.501s0.672 1.501 1.501 1.501c0.017 0 0.034-0 0.051-0.001l-0.002 0c0.808-0.027 1.452-0.688 1.452-1.5s-0.644-1.473-1.449-1.5l-0.002-0zM32 5c0 0.552-0.448 1-1 1v0h-3.586l-3.482 3.483-2.707 15.848c-0.164 0.953-0.985 1.669-1.973 1.669-0.553 0-1.053-0.224-1.415-0.586l-12.25-12.251c-0.362-0.362-0.586-0.862-0.586-1.414 0-0.989 0.718-1.81 1.66-1.971l0.012-0.002 15.842-2.709 3.776-3.776c0.181-0.18 0.43-0.291 0.705-0.291 0.001 0 0.001 0 0.002 0h4c0.552 0 1 0.448 1 1v0zM21.776 10.224l-14.776 2.526 12.25 12.25 2.528-14.776z"></path>
    </symbol>
    <symbol id="icon-gas" viewBox="0 0 32 32">
      <path stroke-linejoin="round" stroke-linecap="round" stroke-miterlimit="4" stroke-width="2.4"
        d="M8 25.333h5.333M24 25.346v-0.013M2.667 8c0-4.413 0.92-5.333 5.333-5.333h16c4.413 0 5.333 0.92 5.333 5.333v16c0 4.413-0.92 5.333-5.333 5.333h-16c-4.413 0-5.333-0.92-5.333-5.333v-16z"></path>
      <path stroke-linejoin="round" stroke-linecap="round" stroke-miterlimit="4" stroke-width="2.4"
        d="M16 18.667c2.946 0 5.334-2.388 5.334-5.334s-2.388-5.334-5.334-5.334v0c-2.946 0-5.334 2.388-5.334 5.334s2.388 5.334 5.334 5.334v0zM20.667 13.333h2M16 18v2M11.333 13.333h-2M16 8.667v-2"></path>
    </symbol>
    <symbol id="icon-kitchen" viewBox="0 0 32 32">
      <path
        d="M1 12c-0.552 0-1 0.448-1 1 0 0.077 0.009 0.151 0.025 0.223l-0.001-0.007 3.304 14.867c0.514 2.257 2.503 3.916 4.88 3.917h11.584c2.377-0.001 4.366-1.66 4.874-3.883l0.006-0.034 0.262-1.179c0.335 0.066 0.721 0.104 1.115 0.104 3.314 0 6-2.686 6-6 0-2.786-1.899-5.129-4.473-5.804l-0.042-0.009 0.442-1.979c0.015-0.065 0.024-0.14 0.024-0.218 0-0.551-0.447-0.998-0.998-0.998-0.001 0-0.001 0-0.002 0h-26zM26 25c-0.001 0-0.003 0-0.004 0-0.222 0-0.439-0.018-0.651-0.053l0.023 0.003 1.734-7.797c1.679 0.501 2.883 2.032 2.883 3.843 0 2.205-1.782 3.993-3.984 4.003h-0.001zM5.28 27.65l-3.034-13.65h23.507l-3.034 13.65c-0.308 1.354-1.502 2.35-2.928 2.35h-11.584c-1.426-0-2.62-0.996-2.924-2.33l-0.004-0.020z"></path>
      <path
        d="M8.8 1.6l-0.006 0.008-0.027 0.038c-0.128 0.173-0.262 0.375-0.388 0.583l-0.020 0.036c-0.097 0.151-0.191 0.326-0.271 0.509l-0.010 0.026c-0.053 0.12-0.069 0.184-0.075 0.206v0.008c0.025 0.187 0.090 0.355 0.185 0.501l-0.003-0.005c0.15 0.266 0.357 0.544 0.616 0.89l0.021 0.024c0.235 0.317 0.52 0.694 0.739 1.086 0.224 0.4 0.44 0.91 0.44 1.49 0 0.376-0.13 0.736-0.238 0.989-0.115 0.267-0.25 0.528-0.403 0.776-0.181 0.301-0.348 0.55-0.526 0.79l0.019-0.027-0.035 0.050-0.010 0.016-0.006 0.006c-0.184 0.244-0.474 0.4-0.8 0.4-0.552 0-1-0.448-1-1 0-0.226 0.075-0.435 0.202-0.603l-0.002 0.002 0.006-0.008 0.027-0.038c0.146-0.2 0.282-0.406 0.408-0.619 0.097-0.151 0.191-0.326 0.271-0.509l0.010-0.026c0.053-0.12 0.069-0.184 0.075-0.206-0.023-0.19-0.088-0.36-0.184-0.509l0.003 0.005c-0.204-0.339-0.408-0.63-0.63-0.905l0.012 0.015-0.021-0.024c-0.249-0.316-0.493-0.67-0.714-1.041l-0.025-0.046c-0.261-0.425-0.422-0.936-0.44-1.483l-0-0.005c0-0.378 0.13-0.736 0.238-0.989 0.118-0.277 0.267-0.549 0.403-0.776 0.188-0.307 0.355-0.557 0.531-0.799l-0.024 0.035 0.048-0.070c0.184-0.245 0.475-0.402 0.802-0.402 0.553 0 1.001 0.448 1.001 1.001 0 0.226-0.075 0.434-0.201 0.602l0.002-0.003zM14.8 1.6l-0.006 0.008-0.027 0.038c-0.128 0.173-0.262 0.375-0.388 0.583l-0.020 0.036c-0.097 0.151-0.192 0.326-0.273 0.509l-0.010 0.025c-0.051 0.12-0.067 0.184-0.074 0.206v0.008c0.025 0.187 0.090 0.355 0.185 0.501l-0.003-0.005c0.15 0.266 0.357 0.544 0.616 0.89l0.019 0.024c0.237 0.317 0.52 0.694 0.741 1.086 0.224 0.4 0.44 0.91 0.44 1.49 0 0.376-0.13 0.736-0.238 0.989-0.115 0.267-0.25 0.528-0.403 0.776-0.181 0.301-0.348 0.55-0.525 0.791l0.019-0.028-0.037 0.050-0.010 0.016-0.006 0.006c-0.184 0.244-0.474 0.4-0.8 0.4-0.552 0-1-0.448-1-1 0-0.226 0.075-0.435 0.202-0.603l-0.002 0.002 0.006-0.008 0.027-0.038c0.146-0.2 0.282-0.406 0.408-0.619 0.097-0.151 0.192-0.326 0.273-0.509l0.010-0.025c0.051-0.12 0.067-0.184 0.074-0.206-0.023-0.19-0.088-0.36-0.184-0.509l0.003 0.005c-0.204-0.339-0.408-0.63-0.63-0.905l0.012 0.015-0.019-0.024c-0.25-0.316-0.494-0.671-0.716-1.041l-0.025-0.046c-0.261-0.425-0.422-0.936-0.44-1.483l-0-0.005c0-0.378 0.13-0.736 0.238-0.989 0.118-0.277 0.267-0.549 0.403-0.776 0.187-0.308 0.354-0.557 0.53-0.8l-0.024 0.035 0.053-0.070c0.185-0.23 0.466-0.376 0.781-0.376 0.552 0 1 0.448 1 1 0 0.215-0.068 0.414-0.184 0.578l0.002-0.003zM20.8 1.6l-0.006 0.008-0.027 0.038c-0.128 0.173-0.263 0.375-0.388 0.583l-0.020 0.036c-0.097 0.151-0.192 0.326-0.273 0.509l-0.010 0.025c-0.051 0.12-0.067 0.184-0.074 0.206v0.008c0.025 0.187 0.090 0.355 0.185 0.501l-0.003-0.005c0.15 0.266 0.357 0.544 0.616 0.89l0.019 0.024c0.237 0.317 0.52 0.694 0.741 1.086 0.224 0.4 0.44 0.91 0.44 1.49 0 0.376-0.13 0.736-0.238 0.989-0.131 0.303-0.266 0.558-0.418 0.801l0.015-0.025c-0.18 0.301-0.347 0.55-0.524 0.791l0.020-0.028-0.038 0.050-0.010 0.016-0.006 0.006c-0.184 0.244-0.474 0.4-0.8 0.4-0.552 0-1-0.448-1-1 0-0.226 0.075-0.435 0.202-0.602l-0.002 0.002 0.006-0.008 0.027-0.038c0.146-0.2 0.282-0.406 0.408-0.619 0.107-0.171 0.202-0.349 0.283-0.534 0.051-0.12 0.067-0.184 0.074-0.206-0.023-0.19-0.088-0.36-0.184-0.509l0.003 0.005c-0.204-0.339-0.408-0.63-0.63-0.905l0.012 0.016-0.019-0.024c-0.25-0.316-0.494-0.671-0.716-1.041l-0.025-0.046c-0.261-0.425-0.422-0.936-0.44-1.483l-0-0.005c0-0.378 0.13-0.736 0.238-0.989 0.135-0.306 0.27-0.561 0.42-0.805l-0.017 0.029c0.16-0.262 0.328-0.517 0.506-0.765l0.053-0.070c0.185-0.23 0.466-0.376 0.781-0.376 0.552 0 1 0.448 1 1 0 0.215-0.068 0.414-0.184 0.578l0.002-0.003z"></path>
    </symbol>
    <symbol id="icon-microwave" viewBox="0 0 32 32">
      <path stroke-linejoin="round" stroke-linecap="round" stroke-miterlimit="4" stroke-width="2"
        d="M26.667 5.333h-21.334c-1.472 0-2.666 1.195-2.666 2.667v14.667c0 1.472 1.194 2.666 2.666 2.666h21.334c1.472 0 2.666-1.194 2.666-2.666v-14.667c0-1.472-1.194-2.667-2.666-2.667z"></path>
      <path stroke-linejoin="round" stroke-linecap="round" stroke-miterlimit="4" stroke-width="2"
        d="M17.333 10.667h-8c-0.736 0-1.333 0.597-1.333 1.333v0 6.667c0 0.736 0.597 1.333 1.333 1.333h8c0.736 0 1.334-0.597 1.334-1.333v-6.667c0-0.736-0.597-1.333-1.333-1.333-0.001 0-0.001 0-0.002 0h0zM24 10.667v9.333M8 25.333v2.667M24 25.333v2.667"></path>
    </symbol>
    <symbol id="icon-engine" viewBox="0 0 32 32">
      <path
        d="M6 5c0-0.552 0.448-1 1-1v0h10c0.552 0 1 0.448 1 1v0 10c0 0.552-0.448 1-1 1v0h-10c-0.552 0-1-0.448-1-1v0-10z"></path>
      <path
        d="M2 4c0-2.209 1.791-4 4-4v0h12c2.209 0 4 1.791 4 4v0 16c2.209 0 4 1.791 4 4v0 1c0 0.552 0.448 1 1 1s1-0.448 1-1v0-9h-1c-0.552 0-1-0.448-1-1v0-6.25c0-0.552 0.448-1 1-1v0h2.99c-0.022-0.952-0.107-1.789-0.403-2.445-0.163-0.386-0.436-0.7-0.779-0.91l-0.008-0.005c-0.368-0.221-0.928-0.39-1.8-0.39-0.552 0-1-0.448-1-1s0.448-1 1-1v0c1.128-0.003 2.069 0.221 2.824 0.672 0.766 0.456 1.269 1.102 1.587 1.814 0.592 1.31 0.589 2.93 0.589 4.162v6.35c0 0 0 0.001 0 0.002 0 0.552-0.448 1-1 1h-1v9c0 1.657-1.343 3-3 3s-3-1.343-3-3v0-1c0-1.105-0.895-2-2-2v0 8h1c0.552 0 1 0.448 1 1s-0.448 1-1 1v0h-22c-0.552 0-1-0.448-1-1s0.448-1 1-1v0h1v-26zM20 4c0-1.105-0.895-2-2-2v0h-12c-1.105 0-2 0.895-2 2v0 26h16v-26z"></path>
    </symbol>
    <symbol id="icon-radio" viewBox="0 0 32 32">
      <path
        d="M14 5c0-0.552 0.448-1 1-1v0h14c0.552 0 1 0.448 1 1v0 2c0 0.552-0.448 1-1 1v0h-14c-0.552 0-1-0.448-1-1v0-2zM0 24c0-3.314 2.686-6 6-6s6 2.686 6 6v0c0 3.314-2.686 6-6 6s-6-2.686-6-6v0zM14 21c0-0.552 0.448-1 1-1v0h14c0 0 0.001 0 0.002 0 0.551 0 0.998 0.447 0.998 0.998 0 0.001 0 0.001 0 0.002v-0 2c0 0 0 0.001 0 0.002 0 0.551-0.447 0.998-0.998 0.998-0.001 0-0.001 0-0.002 0h-14c-0.552 0-1-0.448-1-1v0-2zM14 11c0-0.552 0.448-1 1-1v0h10c0.552 0 1 0.448 1 1s-0.448 1-1 1v0h-10c-0.552 0-1-0.448-1-1v0zM14 27c0-0.552 0.448-1 1-1v0h10c0.552 0 1 0.448 1 1s-0.448 1-1 1v0h-10c-0.552 0-1-0.448-1-1v0zM6 2c-3.314 0-6 2.686-6 6s2.686 6 6 6v0c3.314 0 6-2.686 6-6s-2.686-6-6-6v0zM6 11c-1.657 0-3-1.343-3-3s1.343-3 3-3v0c1.657 0 3 1.343 3 3s-1.343 3-3 3v0z"></path>
    </symbol>
    <symbol id="icon-refrigerator" viewBox="0 0 32 32">
      <path
        d="M23.667 9.333c0-0.552-0.448-1-1-1s-1 0.448-1 1v0 2.667c0 0.552 0.448 1 1 1s1-0.448 1-1v0-2.667zM23.667 18.667c0-0.552-0.448-1-1-1s-1 0.448-1 1v0 2.666c0 0.552 0.448 1 1 1s1-0.448 1-1v0-2.666z"></path>
      <path
        d="M16.075 1.667h-0.15c-2.45 0-4.392 0-5.91 0.203-1.562 0.211-2.827 0.654-3.826 1.651-0.998 0.998-1.44 2.264-1.651 3.827-0.205 1.52-0.205 3.459-0.205 5.91v4.149c0 2.451 0 4.392 0.205 5.91 0.211 1.563 0.653 2.829 1.651 3.827 0.613 0.611 1.325 1.014 2.144 1.283v0.904c0 0.552 0.448 1 1 1h1.334c0.552 0 1-0.448 1-1v0-0.394c1.21 0.061 2.619 0.061 4.258 0.061h0.15c1.64 0 3.048 0 4.258-0.061v0.394c0 0.552 0.448 1 1 1h1.334c0.552 0 1-0.448 1-1v0-0.904c0.819-0.269 1.533-0.672 2.144-1.283 0.998-0.998 1.44-2.264 1.651-3.827 0.205-1.52 0.205-3.459 0.205-5.91v-4.147c0-2.451 0-4.392-0.205-5.912-0.211-1.562-0.653-2.827-1.651-3.826s-2.264-1.44-3.826-1.651c-1.52-0.203-3.461-0.203-5.91-0.203zM7.603 4.936c0.563-0.563 1.338-0.902 2.678-1.083 1.371-0.184 3.176-0.186 5.718-0.186 2.544 0 4.349 0.002 5.72 0.186 1.341 0.181 2.112 0.52 2.677 1.083 0.565 0.565 0.904 1.338 1.083 2.678 0.184 1.371 0.187 3.176 0.187 5.718v1h-19.334v-1c0-2.542 0.003-4.347 0.187-5.72 0.181-1.339 0.518-2.112 1.083-2.677zM6.333 16.333h19.334v1c0 2.544-0.003 4.35-0.187 5.72-0.181 1.341-0.518 2.114-1.083 2.678-0.563 0.563-1.336 0.902-2.678 1.082-1.371 0.184-3.176 0.187-5.718 0.187-2.544 0-4.347-0.003-5.72-0.187-1.339-0.179-2.112-0.518-2.677-1.082-0.565-0.565-0.902-1.338-1.083-2.68-0.184-1.368-0.187-3.176-0.187-5.718v-1z"></path>
    </symbol>
    <symbol id="icon-transmission" viewBox="0 0 32 32">
      <path
        d="M12 7c0-1.657 1.343-3 3-3v0h2c1.657 0 3 1.343 3 3v0 2c0 1.657-1.343 3-3 3v0 2h11c0.552 0 1 0.448 1 1v0 2c0 0.552-0.448 1-1 1s-1-0.448-1-1v0-1h-10v1c0 0.552-0.448 1-1 1s-1-0.448-1-1v0-1h-10v1c0 0.552-0.448 1-1 1s-1-0.448-1-1v0-2c0-0.552 0.448-1 1-1v0h11v-2c-1.657 0-3-1.343-3-3v0-2zM17 10c0.552 0 1-0.448 1-1v0-2c0-0.552-0.448-1-1-1v0h-2c-0.552 0-1 0.448-1 1v0 2c0 0.552 0.448 1 1 1v0h2zM0 23c0-1.657 1.343-3 3-3v0h2c1.657 0 3 1.343 3 3v0 2c0 1.657-1.343 3-3 3v0h-2c-1.657 0-3-1.343-3-3v0-2zM3 22c-0.552 0-1 0.448-1 1v0 2c0 0.552 0.448 1 1 1v0h2c0.552 0 1-0.448 1-1v0-2c0-0.552-0.448-1-1-1v0h-2zM12 23c0-1.657 1.343-3 3-3v0h2c1.657 0 3 1.343 3 3v0 2c0 1.657-1.343 3-3 3v0h-2c-1.657 0-3-1.343-3-3v0-2zM15 22c-0.552 0-1 0.448-1 1v0 2c0 0.552 0.448 1 1 1v0h2c0 0 0.001 0 0.002 0 0.551 0 0.998-0.447 0.998-0.998 0-0.001 0-0.001 0-0.002v0-2c0-0 0-0.001 0-0.002 0-0.551-0.447-0.998-0.998-0.998-0.001 0-0.001 0-0.002 0h-2zM24 23c0-1.657 1.343-3 3-3v0h2c1.657 0 3 1.343 3 3v0 2c0 1.657-1.343 3-3 3v0h-2c-1.657 0-3-1.343-3-3v0-2zM27 22c-0 0-0.001 0-0.002 0-0.551 0-0.998 0.447-0.998 0.998 0 0.001 0 0.001 0 0.002v-0 2c0 0 0 0.001 0 0.002 0 0.551 0.447 0.998 0.998 0.998 0.001 0 0.001 0 0.002 0h2c0 0 0.001 0 0.002 0 0.551 0 0.998-0.447 0.998-0.998 0-0.001 0-0.001 0-0.002v0-2c0-0 0-0.001 0-0.002 0-0.551-0.447-0.998-0.998-0.998-0.001 0-0.001 0-0.002 0h-2z"></path>
    </symbol>
    <symbol id="icon-water" viewBox="0 0 32 32">
      <path stroke-linejoin="miter" stroke-linecap="butt" stroke-miterlimit="10" stroke-width="2"
        d="M25 20c0 5.523-3.477 9-9 9s-9-3.477-9-9c0-5.926 6.451-13.928 8.432-16.243 0.138-0.16 0.342-0.261 0.569-0.261s0.43 0.101 0.568 0.26l0.001 0.001c1.979 2.315 8.43 10.317 8.43 16.243z"></path>
      <path stroke-linejoin="round" stroke-linecap="round" stroke-miterlimit="4" stroke-width="2"
        d="M21.501 20.501c0 2.485-2.014 4.499-4.499 4.499-0.001 0-0.001 0-0.002 0h0"></path>
    </symbol>
    <symbol id="icon-TV" fill="none" viewBox="0 0 32 32">
      <path fill="#101828"
        d="M0 8s0-4 4-4h24s4 0 4 4v12s0 4-4 4h-8c0 1.333.167 2.333.5 3H22a1 1 0 0 1 0 2H10a1 1 0 0 1 0-2h1.5c.333-.667.5-1.667.5-3H4s-4 0-4-4V8Zm2.796-1.71a1.52 1.52 0 0 0-.508.604A3 3 0 0 0 2 8.02V20c0 .65.156 1.004.29 1.204.14.208.341.377.604.508.338.162.703.259 1.076.286l.05.002H28c.65 0 1.004-.156 1.204-.29a1.52 1.52 0 0 0 .508-.604c.162-.338.259-.703.286-1.076l.002-.05V8c0-.65-.156-1.004-.29-1.204a1.52 1.52 0 0 0-.604-.508A3 3 0 0 0 27.98 6H4c-.65 0-1.004.156-1.204.29Z" />
    </symbol>

    <symbol id="icon-location" fill="none" viewBox="0 0 20 20">
      <g clip-path="url(#a)">
        <path fill="#101828" fill-rule="evenodd"
          d="M19.771.141A.624.624 0 0 1 20 .625v17.5a.625.625 0 0 1-.503.612l-6.25 1.25a.627.627 0 0 1-.245 0l-6.127-1.225-6.127 1.225A.625.625 0 0 1 0 19.375v-17.5a.625.625 0 0 1 .502-.613l6.25-1.25a.625.625 0 0 1 .245 0l6.128 1.225L19.253.012a.625.625 0 0 1 .518.129ZM12.5 2.387l-5-1v16.225l5 1V2.387Zm1.25 16.225 5-1V1.387l-5 1v16.225Zm-7.5-1V1.387l-5 1v16.225l5-1Z"
          clip-rule="evenodd" />
      </g>
      <defs>
        <clipPath id="a">
          <path fill="#fff" d="M0 0h20v20H0z" />
        </clipPath>
      </defs>
    </symbol>

    <symbol id="icon-star" fill="none" viewBox="0 0 16 16">
      <g clip-path="url(#a)">
        <path fill="#FFC531"
          d="M7.558.838a.5.5 0 0 1 .884 0l1.889 3.579a.5.5 0 0 0 .356.26l3.988.69a.5.5 0 0 1 .273.84l-2.82 2.902a.5.5 0 0 0-.137.42l.576 4.005a.5.5 0 0 1-.715.52L8.22 12.268a.5.5 0 0 0-.442 0l-3.63 1.786a.5.5 0 0 1-.716-.52l.576-4.005a.5.5 0 0 0-.137-.42l-2.82-2.902a.5.5 0 0 1 .273-.84l3.988-.69a.5.5 0 0 0 .357-.26L7.558.838Z" />
      </g>
      <defs>
        <clipPath id="a">
          <path fill="#fff" d="M0 0h16v16H0z" />
        </clipPath>
      </defs>
    </symbol>

  </defs>
</svg>